<?xml version="1.0" encoding="iso-8859-1"?>
<!-- Generator: Adobe Illustrator 19.0.0, SVG Export Plug-In . SVG Version: 6.00 Build 0)  -->
<svg version="1.1" id="Layer_1" xmlns="http://www.w3.org/2000/svg" xmlns:xlink="http://www.w3.org/1999/xlink" x="0px" y="0px"
	 viewBox="0 0 495.44 495.44" style="enable-background:new 0 0 495.44 495.44;" xml:space="preserve">
<g>
	<path style="fill:#EE8700;" d="M247.72,495.44c42.756,0,78.637-29.963,87.756-69.995H247.72V495.44z"/>
	<path style="fill:#FFA733;" d="M159.964,425.445c9.12,40.032,45,69.995,87.756,69.995v-69.995H159.964z"/>
	<path style="fill:#FFCD00;" d="M455.22,385.445V328.17l-30-30v-73.54c0-79.3-52.71-148.46-127.5-170.35V50c0-27.57-22.43-50-50-50
		v385.445H455.22z"/>
	<path style="fill:#FFDA44;" d="M247.72,0c-27.57,0-50,22.43-50,50v4.28c-74.79,21.89-127.5,91.05-127.5,170.35v73.54l-30,30v57.275
		h207.5V0z"/>
	<rect x="20.22" y="385.445" style="fill:#FFB655;" width="455" height="40"/>
</g>
<g>
</g>
<g>
</g>
<g>
</g>
<g>
</g>
<g>
</g>
<g>
</g>
<g>
</g>
<g>
</g>
<g>
</g>
<g>
</g>
<g>
</g>
<g>
</g>
<g>
</g>
<g>
</g>
<g>
</g>
</svg>
